<svg width="200" id="logo" height="52" viewBox="0 0 457 98" fill="none" xmlns="http://www.w3.org/2000/svg">
<mask id="path-1-outside-1" maskUnits="userSpaceOnUse" x="0.615356" y="0.495995" width="456" height="97" fill="white">
<rect fill="white" x="0.615356" y="0.495995" width="456" height="97"/>
<path d="M25.3034 35.912C28.6634 35.432 31.7594 35.192 34.5914 35.192L33.8714 18.416C32.7194 20.48 31.0874 23.792 28.9754 28.352C27.1514 32.24 25.9274 34.76 25.3034 35.912ZM46.8314 61.688C47.0234 62.408 46.8314 63.104 46.2554 63.776C45.6794 64.4 44.8874 64.904 43.8794 65.288C42.9194 65.72 42.0074 65.936 41.1434 65.936C39.7514 65.936 38.9594 65.504 38.7674 64.64C37.0394 57.776 35.7674 49.616 34.9514 40.16C30.6314 40.112 26.3354 40.52 22.0634 41.384C17.5514 48.92 13.3514 55.856 9.46336 62.192C9.07936 62.864 8.28736 63.44 7.08736 63.92C5.83936 64.352 4.68736 64.568 3.63136 64.568C2.28736 64.568 1.61536 64.208 1.61536 63.488C1.61536 63.2 1.71136 62.888 1.90336 62.552C5.74336 55.832 9.29536 49.688 12.5594 44.12L11.3354 44.552C10.5674 44.84 9.87136 44.984 9.24736 44.984C8.62336 44.984 8.14336 44.84 7.80736 44.552C7.42336 44.264 7.23136 43.904 7.23136 43.472C7.23136 42.992 7.47136 42.512 7.95136 42.032C8.38336 41.504 9.03136 41.048 9.89536 40.664C12.1514 39.656 14.1674 38.864 15.9434 38.288C18.5354 33.824 21.2954 28.76 24.2234 23.096C27.5834 16.616 30.4154 11.552 32.7194 7.90399C32.8634 7.71199 33.0554 7.51999 33.2954 7.32799L33.2234 6.96799C33.2234 6.10399 33.8234 5.33599 35.0234 4.66399C36.2714 3.94399 37.5194 3.58399 38.7674 3.58399C40.3034 3.58399 41.0954 4.15999 41.1434 5.31199L41.3594 10.136C41.7914 21.704 42.3434 31.448 43.0154 39.368C43.7354 47.24 45.0074 54.68 46.8314 61.688Z"/>
<path d="M84.9059 91.208C84.7139 91.304 84.6419 91.424 84.6899 91.568C84.6899 91.472 84.7619 91.352 84.9059 91.208ZM102.69 19.856C102.69 18.944 103.242 18.152 104.346 17.48C105.45 16.808 106.602 16.472 107.802 16.472C108.522 16.472 109.098 16.64 109.53 16.976C110.01 17.264 110.25 17.744 110.25 18.416C110.298 20.864 110.13 23.264 109.746 25.616C109.41 27.92 108.834 31.136 108.018 35.264C107.634 36.992 107.37 38.264 107.226 39.08C105.546 48.104 103.482 57.368 101.034 66.872C99.7379 72.008 98.5619 76.208 97.5059 79.472C96.4979 82.784 95.2259 85.952 93.6899 88.976C92.7299 90.848 91.4819 92.504 89.9459 93.944C88.4099 95.432 86.8019 96.176 85.1219 96.176C83.9699 96.176 82.8419 95.768 81.7379 94.952C79.0019 92.84 77.6339 88.256 77.6339 81.2C77.6339 79.28 77.7539 76.52 77.9939 72.92C78.0419 72.008 78.6419 71.216 79.7939 70.544C80.9459 69.872 82.1219 69.536 83.3219 69.536C84.9539 69.536 85.7459 70.16 85.6979 71.408C85.6019 73.616 85.5539 75.296 85.5539 76.448C85.5539 79.088 85.6979 81.656 85.9859 84.152C86.0339 84.44 86.1059 84.92 86.2019 85.592C86.3459 86.264 86.5139 86.864 86.7059 87.392C86.8979 86.864 87.1619 86.312 87.4979 85.736C88.5059 83.528 89.1539 81.968 89.4419 81.056C90.4499 78.128 91.6979 73.88 93.1859 68.312C94.5299 63.176 95.6579 58.568 96.5699 54.488C93.9299 57.704 91.0739 59.696 88.0019 60.464C86.5139 60.8 85.3619 60.968 84.5459 60.968C79.1699 60.968 76.4819 56.912 76.4819 48.8C76.4819 42.656 78.0659 34.304 81.2339 23.744C81.4739 22.88 82.1459 22.112 83.2499 21.44C84.3539 20.72 85.4099 20.36 86.4179 20.36C87.7619 20.36 88.5539 20.984 88.7939 22.232C88.8899 22.76 88.7219 23.576 88.2899 24.68C87.8579 25.784 87.5939 26.504 87.4979 26.84C86.7299 29.72 86.2019 31.88 85.9139 33.32L85.5539 34.832C84.9779 37.28 84.4979 39.512 84.1139 41.528C83.7299 43.544 83.5379 45.488 83.5379 47.36C83.5379 50.768 84.2819 53.144 85.7699 54.488C86.1539 54.872 86.6099 55.064 87.1379 55.064C88.6739 55.064 90.2339 53.696 91.8179 50.96C93.4019 48.176 95.0099 44.96 96.6419 41.312C98.2739 37.568 99.5459 34.4 100.458 31.808C101.418 29.168 102.066 26.528 102.402 23.888C102.498 22.928 102.594 21.584 102.69 19.856Z"/>
<path d="M164.135 22.088C164.471 21.512 165.287 20.912 166.583 20.288C167.927 19.616 169.103 19.28 170.111 19.28C171.551 19.28 172.175 19.952 171.983 21.296C171.983 21.44 171.959 21.656 171.911 21.944C171.863 22.232 171.815 22.448 171.767 22.592V22.736C171.287 25.952 170.735 29.816 170.111 34.328C169.535 38.792 169.079 42.296 168.743 44.84L166.871 58.664C166.727 59.624 166.031 60.44 164.783 61.112C163.583 61.784 162.359 62.12 161.111 62.12C160.343 62.12 159.719 61.952 159.239 61.616C158.807 61.28 158.639 60.8 158.735 60.176C159.263 56.048 160.103 49.856 161.255 41.6L160.535 42.824C159.287 44.936 158.351 46.472 157.727 47.432C155.567 50.792 153.263 53.624 150.815 55.928C148.415 58.232 145.655 59.768 142.535 60.536C141.335 60.824 140.255 60.968 139.295 60.968C134.783 60.968 132.527 57.896 132.527 51.752C132.527 48.872 132.983 45.608 133.895 41.96C134.807 38.264 135.839 34.808 136.991 31.592C138.191 28.376 139.223 25.928 140.087 24.248C140.423 23.576 141.167 23 142.319 22.52C143.519 21.992 144.671 21.728 145.775 21.728C146.447 21.728 146.975 21.848 147.359 22.088C147.791 22.328 148.007 22.664 148.007 23.096C148.007 23.288 147.935 23.576 147.791 23.96C144.575 31.016 142.487 37.424 141.527 43.184L141.167 45.128C140.783 47.144 140.591 48.68 140.591 49.736C140.591 50.264 140.615 50.648 140.663 50.888C141.239 53.336 142.175 54.488 143.471 54.344C143.999 54.296 144.623 53.84 145.343 52.976C146.111 52.112 146.591 51.584 146.783 51.392C149.135 48.656 151.271 45.68 153.191 42.464C155.111 39.2 157.343 35.12 159.887 30.224C161.183 27.584 162.599 24.872 164.135 22.088Z"/>
<path d="M200.858 28.28C200.858 30.104 201.314 31.712 202.226 33.104C203.186 34.496 204.338 35.672 205.682 36.632C207.026 37.592 208.85 38.72 211.154 40.016C214.274 41.792 216.65 43.4 218.282 44.84C219.962 46.28 221.066 48.08 221.594 50.24C221.786 51.2 221.882 51.896 221.882 52.328C221.882 55.688 220.106 58.112 216.554 59.6C213.002 61.04 208.97 61.76 204.458 61.76C202.682 61.76 201.122 61.64 199.778 61.4C198.194 61.112 196.538 60.56 194.81 59.744C193.13 58.88 191.714 57.848 190.562 56.648C189.458 55.4 188.906 54.128 188.906 52.832C188.906 50.816 190.466 48.968 193.586 47.288C194.45 46.856 195.29 46.64 196.106 46.64C196.874 46.64 197.498 46.808 197.978 47.144C198.506 47.48 198.77 47.888 198.77 48.368C198.77 49.232 198.074 50.072 196.682 50.888C196.394 51.032 196.25 51.248 196.25 51.536C196.25 52.112 196.706 52.808 197.618 53.624C198.53 54.44 199.25 54.992 199.778 55.28C201.218 56.096 203.522 56.6 206.69 56.792C207.074 56.84 207.746 56.864 208.706 56.864C210.434 56.864 211.826 56.576 212.882 56C213.938 55.424 214.394 54.368 214.25 52.832C214.058 50.768 211.97 48.44 207.986 45.848L205.25 44.12C202.754 42.584 200.69 41.24 199.058 40.088C197.474 38.888 196.106 37.472 194.954 35.84C193.802 34.16 193.226 32.288 193.226 30.224C193.226 28.928 193.466 27.632 193.946 26.336C195.002 23.216 196.97 20.816 199.85 19.136C202.73 17.408 205.826 16.544 209.138 16.544C212.546 16.544 215.402 17.408 217.706 19.136C220.058 20.864 221.234 23.312 221.234 26.48C221.234 27.488 221.09 28.568 220.802 29.72C220.61 30.584 219.89 31.328 218.642 31.952C217.394 32.576 216.218 32.888 215.114 32.888C214.442 32.888 213.914 32.744 213.53 32.456C213.194 32.168 213.122 31.76 213.314 31.232C213.602 30.224 213.746 29.216 213.746 28.208C213.746 26.624 213.338 25.28 212.522 24.176C211.706 23.072 210.506 22.304 208.922 21.872C208.058 21.68 207.41 21.584 206.978 21.584C205.25 21.584 203.786 22.208 202.586 23.456C201.434 24.656 200.858 26.264 200.858 28.28Z"/>
<path d="M272.455 18.056C273.223 18.296 273.583 18.8 273.535 19.568C272.191 32.432 270.223 45.848 267.631 59.816C267.439 60.728 266.767 61.496 265.615 62.12C264.463 62.744 263.311 63.056 262.159 63.056C261.439 63.056 260.863 62.912 260.431 62.624C259.999 62.288 259.855 61.832 259.999 61.256C261.151 56.264 262.111 51.152 262.879 45.92C263.647 40.688 264.391 34.688 265.111 27.92C261.175 31.568 257.239 35.552 253.303 39.872L249.343 61.76C249.151 62.672 248.455 63.464 247.255 64.136C246.055 64.808 244.855 65.144 243.655 65.144C242.935 65.144 242.383 65 241.999 64.712C241.615 64.376 241.471 63.896 241.567 63.272L245.095 43.472C244.519 43.328 244.231 42.992 244.231 42.464C244.231 42.08 244.447 41.6 244.879 41.024L245.743 39.872L252.223 4.66399C252.367 3.79999 253.039 3.05599 254.239 2.432C255.439 1.80799 256.615 1.49599 257.767 1.49599C258.439 1.49599 258.967 1.63999 259.351 1.92799C259.735 2.21599 259.879 2.62399 259.783 3.15199L255.175 29.216C258.727 25.664 262.687 22.28 267.055 19.064C268.447 18.104 269.743 17.624 270.943 17.624C271.519 17.624 272.023 17.768 272.455 18.056Z"/>
<path d="M370.049 19.064C369.521 25.256 365.513 30.008 358.025 33.32C361.001 34.904 362.849 37.544 363.569 41.24C363.857 42.728 364.001 44.648 364.001 47C364.001 48.392 363.953 50.48 363.857 53.264L363.785 56C363.785 59.264 364.457 61.064 365.801 61.4C366.905 61.64 367.457 62.096 367.457 62.768C367.457 63.536 366.809 64.328 365.513 65.144C364.217 65.96 363.017 66.368 361.913 66.368C361.673 66.368 361.481 66.344 361.337 66.296C359.177 65.816 357.713 64.736 356.945 63.056C356.177 61.376 355.793 59.24 355.793 56.648C355.793 55.736 355.841 54.464 355.937 52.832C356.033 51.296 356.081 50.24 356.081 49.664C356.129 47.312 355.985 45.272 355.649 43.544C355.361 41.768 354.665 40.256 353.561 39.008C352.169 37.472 350.177 36.632 347.585 36.488C347.153 36.584 346.337 36.752 345.137 36.992L340.745 60.104C340.553 61.016 339.809 61.808 338.513 62.48C337.265 63.104 336.017 63.416 334.769 63.416C334.097 63.416 333.569 63.272 333.185 62.984C332.801 62.696 332.657 62.288 332.753 61.76C334.577 52.256 336.113 44.36 337.361 38.072C335.969 38.12 335.273 37.712 335.273 36.848C335.273 36.32 335.561 35.696 336.137 34.976C336.761 34.208 337.457 33.656 338.225 33.32L341.753 14.6C341.945 13.832 342.185 12.632 342.473 11C341.849 11.192 341.249 11.288 340.673 11.288C340.001 11.288 339.473 11.144 339.089 10.856C338.705 10.568 338.513 10.208 338.513 9.776C338.513 9.296 338.753 8.79199 339.233 8.26399C339.761 7.73599 340.481 7.27999 341.393 6.89599C343.265 6.03199 345.497 5.45599 348.089 5.16799C350.537 4.87999 352.745 4.736 354.713 4.736C359.993 4.736 363.881 5.744 366.377 7.75999C368.873 9.77599 370.121 12.848 370.121 16.976C370.121 17.888 370.097 18.584 370.049 19.064ZM362.129 22.088C362.417 21.08 362.561 20.168 362.561 19.352C362.561 16.616 361.337 14.456 358.889 12.872C356.441 11.288 353.537 10.376 350.177 10.136L346.073 31.808C346.409 31.808 346.913 31.76 347.585 31.664C351.377 30.992 354.545 29.936 357.089 28.496C359.633 27.056 361.313 24.92 362.129 22.088Z"/>
<path d="M396.008 51.608C395.912 52.184 395.864 52.592 395.864 52.832C395.864 54.752 396.8 55.712 398.672 55.712C399.776 55.712 401.12 55.4 402.704 54.776C404.144 54.2 406.808 52.976 410.696 51.104C410.792 49.904 410.888 48.752 410.984 47.648C411.128 46.496 411.248 45.464 411.344 44.552L411.848 39.584C408.536 41.168 406.064 42.416 404.432 43.328C402.032 44.72 400.112 46.04 398.672 47.288C397.232 48.488 396.344 49.928 396.008 51.608ZM414.728 17.696C416.888 17.696 418.328 18.248 419.048 19.352C419.816 20.408 420.2 21.968 420.2 24.032L420.128 26.048C419.936 29.552 419.504 34.688 418.832 41.456C418.688 42.416 418.52 44.024 418.328 46.28C418.136 47.672 417.968 48.8 417.824 49.664C418.352 49.952 418.616 50.336 418.616 50.816C418.616 51.152 418.448 51.656 418.112 52.328L417.824 52.688L417.392 53.12C417.056 55.568 416.888 57.656 416.888 59.384C417.56 59.768 417.896 60.224 417.896 60.752C417.896 61.568 417.296 62.432 416.096 63.344C415.76 63.584 415.376 63.824 414.944 64.064C414.608 64.256 414.128 64.424 413.504 64.568C412.928 64.712 412.352 64.784 411.776 64.784C410 64.784 409.184 64.136 409.328 62.84L409.904 56.792C403.472 59.864 398.528 61.4 395.072 61.4C390.704 61.4 388.52 59.048 388.52 54.344C388.52 49.832 390.848 45.992 395.504 42.824C400.208 39.656 405.824 36.8 412.352 34.256C412.544 32.384 412.688 30.488 412.784 28.568C412.784 28.184 412.808 27.704 412.856 27.128C412.904 26.552 412.928 25.904 412.928 25.184C412.928 24.272 412.856 23.672 412.712 23.384L412.496 23.096H412.424C411.704 23.096 410.36 24.08 408.392 26.048C406.616 27.776 404.408 30.368 401.768 33.824C401.384 34.352 400.736 34.784 399.824 35.12C398.96 35.456 398.072 35.624 397.16 35.624C396.488 35.624 395.912 35.504 395.432 35.264C395 35.024 394.784 34.664 394.784 34.184C394.784 33.8 394.976 33.296 395.36 32.672C401.984 22.688 408.44 17.696 414.728 17.696Z"/>
<path d="M448.042 21.152C448.09 20.24 448.666 19.448 449.77 18.776C450.922 18.104 452.098 17.768 453.298 17.768C453.97 17.768 454.522 17.936 454.954 18.272C455.434 18.56 455.65 19.016 455.602 19.64C455.026 41.048 452.05 61.808 446.674 81.92C445.618 85.76 444.154 88.952 442.282 91.496C440.458 94.04 437.914 95.504 434.65 95.888C434.362 95.936 433.93 95.96 433.354 95.96C429.946 95.96 427.498 94.52 426.01 91.64C424.474 88.808 423.418 85.28 422.842 81.056C422.65 79.952 423.13 78.968 424.282 78.104C425.434 77.288 426.658 76.88 427.954 76.88C429.538 76.88 430.426 77.552 430.618 78.896C430.954 81.68 431.338 84.008 431.77 85.88C432.202 87.752 433.018 89 434.218 89.624C434.698 89.816 435.01 89.912 435.154 89.912C435.922 89.912 436.522 89.48 436.954 88.616C437.386 87.752 437.722 86.912 437.962 86.096C438.202 85.328 438.346 84.848 438.394 84.656C439.402 81.584 440.266 78.416 440.986 75.152C441.706 71.936 442.474 68.072 443.29 63.56C445.786 50.024 447.37 35.888 448.042 21.152ZM446.602 13.16C446.65 13.448 446.842 13.688 447.178 13.88C447.514 14.072 447.85 14.192 448.186 14.24C448.33 14.288 448.57 14.312 448.906 14.312C449.674 14.312 450.346 14.168 450.922 13.88C451.786 13.544 452.506 13.112 453.082 12.584C453.706 12.008 453.946 11.336 453.802 10.568L453.154 7.68799C453.106 7.39999 452.914 7.18399 452.578 7.03999C452.242 6.84799 451.906 6.72799 451.57 6.67999C451.426 6.63199 451.162 6.60799 450.778 6.60799C450.154 6.60799 449.482 6.72799 448.762 6.96799C446.554 7.928 445.618 9.05599 445.954 10.352L446.602 13.16Z"/>
</mask>
<path d="M25.3034 35.912C28.6634 35.432 31.7594 35.192 34.5914 35.192L33.8714 18.416C32.7194 20.48 31.0874 23.792 28.9754 28.352C27.1514 32.24 25.9274 34.76 25.3034 35.912ZM46.8314 61.688C47.0234 62.408 46.8314 63.104 46.2554 63.776C45.6794 64.4 44.8874 64.904 43.8794 65.288C42.9194 65.72 42.0074 65.936 41.1434 65.936C39.7514 65.936 38.9594 65.504 38.7674 64.64C37.0394 57.776 35.7674 49.616 34.9514 40.16C30.6314 40.112 26.3354 40.52 22.0634 41.384C17.5514 48.92 13.3514 55.856 9.46336 62.192C9.07936 62.864 8.28736 63.44 7.08736 63.92C5.83936 64.352 4.68736 64.568 3.63136 64.568C2.28736 64.568 1.61536 64.208 1.61536 63.488C1.61536 63.2 1.71136 62.888 1.90336 62.552C5.74336 55.832 9.29536 49.688 12.5594 44.12L11.3354 44.552C10.5674 44.84 9.87136 44.984 9.24736 44.984C8.62336 44.984 8.14336 44.84 7.80736 44.552C7.42336 44.264 7.23136 43.904 7.23136 43.472C7.23136 42.992 7.47136 42.512 7.95136 42.032C8.38336 41.504 9.03136 41.048 9.89536 40.664C12.1514 39.656 14.1674 38.864 15.9434 38.288C18.5354 33.824 21.2954 28.76 24.2234 23.096C27.5834 16.616 30.4154 11.552 32.7194 7.90399C32.8634 7.71199 33.0554 7.51999 33.2954 7.32799L33.2234 6.96799C33.2234 6.10399 33.8234 5.33599 35.0234 4.66399C36.2714 3.94399 37.5194 3.58399 38.7674 3.58399C40.3034 3.58399 41.0954 4.15999 41.1434 5.31199L41.3594 10.136C41.7914 21.704 42.3434 31.448 43.0154 39.368C43.7354 47.24 45.0074 54.68 46.8314 61.688Z" stroke="white" stroke-width="2" mask="url(#path-1-outside-1)"/>
<path d="M84.9059 91.208C84.7139 91.304 84.6419 91.424 84.6899 91.568C84.6899 91.472 84.7619 91.352 84.9059 91.208ZM102.69 19.856C102.69 18.944 103.242 18.152 104.346 17.48C105.45 16.808 106.602 16.472 107.802 16.472C108.522 16.472 109.098 16.64 109.53 16.976C110.01 17.264 110.25 17.744 110.25 18.416C110.298 20.864 110.13 23.264 109.746 25.616C109.41 27.92 108.834 31.136 108.018 35.264C107.634 36.992 107.37 38.264 107.226 39.08C105.546 48.104 103.482 57.368 101.034 66.872C99.7379 72.008 98.5619 76.208 97.5059 79.472C96.4979 82.784 95.2259 85.952 93.6899 88.976C92.7299 90.848 91.4819 92.504 89.9459 93.944C88.4099 95.432 86.8019 96.176 85.1219 96.176C83.9699 96.176 82.8419 95.768 81.7379 94.952C79.0019 92.84 77.6339 88.256 77.6339 81.2C77.6339 79.28 77.7539 76.52 77.9939 72.92C78.0419 72.008 78.6419 71.216 79.7939 70.544C80.9459 69.872 82.1219 69.536 83.3219 69.536C84.9539 69.536 85.7459 70.16 85.6979 71.408C85.6019 73.616 85.5539 75.296 85.5539 76.448C85.5539 79.088 85.6979 81.656 85.9859 84.152C86.0339 84.44 86.1059 84.92 86.2019 85.592C86.3459 86.264 86.5139 86.864 86.7059 87.392C86.8979 86.864 87.1619 86.312 87.4979 85.736C88.5059 83.528 89.1539 81.968 89.4419 81.056C90.4499 78.128 91.6979 73.88 93.1859 68.312C94.5299 63.176 95.6579 58.568 96.5699 54.488C93.9299 57.704 91.0739 59.696 88.0019 60.464C86.5139 60.8 85.3619 60.968 84.5459 60.968C79.1699 60.968 76.4819 56.912 76.4819 48.8C76.4819 42.656 78.0659 34.304 81.2339 23.744C81.4739 22.88 82.1459 22.112 83.2499 21.44C84.3539 20.72 85.4099 20.36 86.4179 20.36C87.7619 20.36 88.5539 20.984 88.7939 22.232C88.8899 22.76 88.7219 23.576 88.2899 24.68C87.8579 25.784 87.5939 26.504 87.4979 26.84C86.7299 29.72 86.2019 31.88 85.9139 33.32L85.5539 34.832C84.9779 37.28 84.4979 39.512 84.1139 41.528C83.7299 43.544 83.5379 45.488 83.5379 47.36C83.5379 50.768 84.2819 53.144 85.7699 54.488C86.1539 54.872 86.6099 55.064 87.1379 55.064C88.6739 55.064 90.2339 53.696 91.8179 50.96C93.4019 48.176 95.0099 44.96 96.6419 41.312C98.2739 37.568 99.5459 34.4 100.458 31.808C101.418 29.168 102.066 26.528 102.402 23.888C102.498 22.928 102.594 21.584 102.69 19.856Z" stroke="white" stroke-width="2" mask="url(#path-1-outside-1)"/>
<path d="M164.135 22.088C164.471 21.512 165.287 20.912 166.583 20.288C167.927 19.616 169.103 19.28 170.111 19.28C171.551 19.28 172.175 19.952 171.983 21.296C171.983 21.44 171.959 21.656 171.911 21.944C171.863 22.232 171.815 22.448 171.767 22.592V22.736C171.287 25.952 170.735 29.816 170.111 34.328C169.535 38.792 169.079 42.296 168.743 44.84L166.871 58.664C166.727 59.624 166.031 60.44 164.783 61.112C163.583 61.784 162.359 62.12 161.111 62.12C160.343 62.12 159.719 61.952 159.239 61.616C158.807 61.28 158.639 60.8 158.735 60.176C159.263 56.048 160.103 49.856 161.255 41.6L160.535 42.824C159.287 44.936 158.351 46.472 157.727 47.432C155.567 50.792 153.263 53.624 150.815 55.928C148.415 58.232 145.655 59.768 142.535 60.536C141.335 60.824 140.255 60.968 139.295 60.968C134.783 60.968 132.527 57.896 132.527 51.752C132.527 48.872 132.983 45.608 133.895 41.96C134.807 38.264 135.839 34.808 136.991 31.592C138.191 28.376 139.223 25.928 140.087 24.248C140.423 23.576 141.167 23 142.319 22.52C143.519 21.992 144.671 21.728 145.775 21.728C146.447 21.728 146.975 21.848 147.359 22.088C147.791 22.328 148.007 22.664 148.007 23.096C148.007 23.288 147.935 23.576 147.791 23.96C144.575 31.016 142.487 37.424 141.527 43.184L141.167 45.128C140.783 47.144 140.591 48.68 140.591 49.736C140.591 50.264 140.615 50.648 140.663 50.888C141.239 53.336 142.175 54.488 143.471 54.344C143.999 54.296 144.623 53.84 145.343 52.976C146.111 52.112 146.591 51.584 146.783 51.392C149.135 48.656 151.271 45.68 153.191 42.464C155.111 39.2 157.343 35.12 159.887 30.224C161.183 27.584 162.599 24.872 164.135 22.088Z" stroke="white" stroke-width="2" mask="url(#path-1-outside-1)"/>
<path d="M200.858 28.28C200.858 30.104 201.314 31.712 202.226 33.104C203.186 34.496 204.338 35.672 205.682 36.632C207.026 37.592 208.85 38.72 211.154 40.016C214.274 41.792 216.65 43.4 218.282 44.84C219.962 46.28 221.066 48.08 221.594 50.24C221.786 51.2 221.882 51.896 221.882 52.328C221.882 55.688 220.106 58.112 216.554 59.6C213.002 61.04 208.97 61.76 204.458 61.76C202.682 61.76 201.122 61.64 199.778 61.4C198.194 61.112 196.538 60.56 194.81 59.744C193.13 58.88 191.714 57.848 190.562 56.648C189.458 55.4 188.906 54.128 188.906 52.832C188.906 50.816 190.466 48.968 193.586 47.288C194.45 46.856 195.29 46.64 196.106 46.64C196.874 46.64 197.498 46.808 197.978 47.144C198.506 47.48 198.77 47.888 198.77 48.368C198.77 49.232 198.074 50.072 196.682 50.888C196.394 51.032 196.25 51.248 196.25 51.536C196.25 52.112 196.706 52.808 197.618 53.624C198.53 54.44 199.25 54.992 199.778 55.28C201.218 56.096 203.522 56.6 206.69 56.792C207.074 56.84 207.746 56.864 208.706 56.864C210.434 56.864 211.826 56.576 212.882 56C213.938 55.424 214.394 54.368 214.25 52.832C214.058 50.768 211.97 48.44 207.986 45.848L205.25 44.12C202.754 42.584 200.69 41.24 199.058 40.088C197.474 38.888 196.106 37.472 194.954 35.84C193.802 34.16 193.226 32.288 193.226 30.224C193.226 28.928 193.466 27.632 193.946 26.336C195.002 23.216 196.97 20.816 199.85 19.136C202.73 17.408 205.826 16.544 209.138 16.544C212.546 16.544 215.402 17.408 217.706 19.136C220.058 20.864 221.234 23.312 221.234 26.48C221.234 27.488 221.09 28.568 220.802 29.72C220.61 30.584 219.89 31.328 218.642 31.952C217.394 32.576 216.218 32.888 215.114 32.888C214.442 32.888 213.914 32.744 213.53 32.456C213.194 32.168 213.122 31.76 213.314 31.232C213.602 30.224 213.746 29.216 213.746 28.208C213.746 26.624 213.338 25.28 212.522 24.176C211.706 23.072 210.506 22.304 208.922 21.872C208.058 21.68 207.41 21.584 206.978 21.584C205.25 21.584 203.786 22.208 202.586 23.456C201.434 24.656 200.858 26.264 200.858 28.28Z" stroke="white" stroke-width="2" mask="url(#path-1-outside-1)"/>
<path d="M272.455 18.056C273.223 18.296 273.583 18.8 273.535 19.568C272.191 32.432 270.223 45.848 267.631 59.816C267.439 60.728 266.767 61.496 265.615 62.12C264.463 62.744 263.311 63.056 262.159 63.056C261.439 63.056 260.863 62.912 260.431 62.624C259.999 62.288 259.855 61.832 259.999 61.256C261.151 56.264 262.111 51.152 262.879 45.92C263.647 40.688 264.391 34.688 265.111 27.92C261.175 31.568 257.239 35.552 253.303 39.872L249.343 61.76C249.151 62.672 248.455 63.464 247.255 64.136C246.055 64.808 244.855 65.144 243.655 65.144C242.935 65.144 242.383 65 241.999 64.712C241.615 64.376 241.471 63.896 241.567 63.272L245.095 43.472C244.519 43.328 244.231 42.992 244.231 42.464C244.231 42.08 244.447 41.6 244.879 41.024L245.743 39.872L252.223 4.66399C252.367 3.79999 253.039 3.05599 254.239 2.432C255.439 1.80799 256.615 1.49599 257.767 1.49599C258.439 1.49599 258.967 1.63999 259.351 1.92799C259.735 2.21599 259.879 2.62399 259.783 3.15199L255.175 29.216C258.727 25.664 262.687 22.28 267.055 19.064C268.447 18.104 269.743 17.624 270.943 17.624C271.519 17.624 272.023 17.768 272.455 18.056Z" stroke="white" stroke-width="2" mask="url(#path-1-outside-1)"/>
<path d="M370.049 19.064C369.521 25.256 365.513 30.008 358.025 33.32C361.001 34.904 362.849 37.544 363.569 41.24C363.857 42.728 364.001 44.648 364.001 47C364.001 48.392 363.953 50.48 363.857 53.264L363.785 56C363.785 59.264 364.457 61.064 365.801 61.4C366.905 61.64 367.457 62.096 367.457 62.768C367.457 63.536 366.809 64.328 365.513 65.144C364.217 65.96 363.017 66.368 361.913 66.368C361.673 66.368 361.481 66.344 361.337 66.296C359.177 65.816 357.713 64.736 356.945 63.056C356.177 61.376 355.793 59.24 355.793 56.648C355.793 55.736 355.841 54.464 355.937 52.832C356.033 51.296 356.081 50.24 356.081 49.664C356.129 47.312 355.985 45.272 355.649 43.544C355.361 41.768 354.665 40.256 353.561 39.008C352.169 37.472 350.177 36.632 347.585 36.488C347.153 36.584 346.337 36.752 345.137 36.992L340.745 60.104C340.553 61.016 339.809 61.808 338.513 62.48C337.265 63.104 336.017 63.416 334.769 63.416C334.097 63.416 333.569 63.272 333.185 62.984C332.801 62.696 332.657 62.288 332.753 61.76C334.577 52.256 336.113 44.36 337.361 38.072C335.969 38.12 335.273 37.712 335.273 36.848C335.273 36.32 335.561 35.696 336.137 34.976C336.761 34.208 337.457 33.656 338.225 33.32L341.753 14.6C341.945 13.832 342.185 12.632 342.473 11C341.849 11.192 341.249 11.288 340.673 11.288C340.001 11.288 339.473 11.144 339.089 10.856C338.705 10.568 338.513 10.208 338.513 9.776C338.513 9.296 338.753 8.79199 339.233 8.26399C339.761 7.73599 340.481 7.27999 341.393 6.89599C343.265 6.03199 345.497 5.45599 348.089 5.16799C350.537 4.87999 352.745 4.736 354.713 4.736C359.993 4.736 363.881 5.744 366.377 7.75999C368.873 9.77599 370.121 12.848 370.121 16.976C370.121 17.888 370.097 18.584 370.049 19.064ZM362.129 22.088C362.417 21.08 362.561 20.168 362.561 19.352C362.561 16.616 361.337 14.456 358.889 12.872C356.441 11.288 353.537 10.376 350.177 10.136L346.073 31.808C346.409 31.808 346.913 31.76 347.585 31.664C351.377 30.992 354.545 29.936 357.089 28.496C359.633 27.056 361.313 24.92 362.129 22.088Z" stroke="white" stroke-width="2" mask="url(#path-1-outside-1)"/>
<path d="M396.008 51.608C395.912 52.184 395.864 52.592 395.864 52.832C395.864 54.752 396.8 55.712 398.672 55.712C399.776 55.712 401.12 55.4 402.704 54.776C404.144 54.2 406.808 52.976 410.696 51.104C410.792 49.904 410.888 48.752 410.984 47.648C411.128 46.496 411.248 45.464 411.344 44.552L411.848 39.584C408.536 41.168 406.064 42.416 404.432 43.328C402.032 44.72 400.112 46.04 398.672 47.288C397.232 48.488 396.344 49.928 396.008 51.608ZM414.728 17.696C416.888 17.696 418.328 18.248 419.048 19.352C419.816 20.408 420.2 21.968 420.2 24.032L420.128 26.048C419.936 29.552 419.504 34.688 418.832 41.456C418.688 42.416 418.52 44.024 418.328 46.28C418.136 47.672 417.968 48.8 417.824 49.664C418.352 49.952 418.616 50.336 418.616 50.816C418.616 51.152 418.448 51.656 418.112 52.328L417.824 52.688L417.392 53.12C417.056 55.568 416.888 57.656 416.888 59.384C417.56 59.768 417.896 60.224 417.896 60.752C417.896 61.568 417.296 62.432 416.096 63.344C415.76 63.584 415.376 63.824 414.944 64.064C414.608 64.256 414.128 64.424 413.504 64.568C412.928 64.712 412.352 64.784 411.776 64.784C410 64.784 409.184 64.136 409.328 62.84L409.904 56.792C403.472 59.864 398.528 61.4 395.072 61.4C390.704 61.4 388.52 59.048 388.52 54.344C388.52 49.832 390.848 45.992 395.504 42.824C400.208 39.656 405.824 36.8 412.352 34.256C412.544 32.384 412.688 30.488 412.784 28.568C412.784 28.184 412.808 27.704 412.856 27.128C412.904 26.552 412.928 25.904 412.928 25.184C412.928 24.272 412.856 23.672 412.712 23.384L412.496 23.096H412.424C411.704 23.096 410.36 24.08 408.392 26.048C406.616 27.776 404.408 30.368 401.768 33.824C401.384 34.352 400.736 34.784 399.824 35.12C398.96 35.456 398.072 35.624 397.16 35.624C396.488 35.624 395.912 35.504 395.432 35.264C395 35.024 394.784 34.664 394.784 34.184C394.784 33.8 394.976 33.296 395.36 32.672C401.984 22.688 408.44 17.696 414.728 17.696Z" stroke="white" stroke-width="2" mask="url(#path-1-outside-1)"/>
<path d="M448.042 21.152C448.09 20.24 448.666 19.448 449.77 18.776C450.922 18.104 452.098 17.768 453.298 17.768C453.97 17.768 454.522 17.936 454.954 18.272C455.434 18.56 455.65 19.016 455.602 19.64C455.026 41.048 452.05 61.808 446.674 81.92C445.618 85.76 444.154 88.952 442.282 91.496C440.458 94.04 437.914 95.504 434.65 95.888C434.362 95.936 433.93 95.96 433.354 95.96C429.946 95.96 427.498 94.52 426.01 91.64C424.474 88.808 423.418 85.28 422.842 81.056C422.65 79.952 423.13 78.968 424.282 78.104C425.434 77.288 426.658 76.88 427.954 76.88C429.538 76.88 430.426 77.552 430.618 78.896C430.954 81.68 431.338 84.008 431.77 85.88C432.202 87.752 433.018 89 434.218 89.624C434.698 89.816 435.01 89.912 435.154 89.912C435.922 89.912 436.522 89.48 436.954 88.616C437.386 87.752 437.722 86.912 437.962 86.096C438.202 85.328 438.346 84.848 438.394 84.656C439.402 81.584 440.266 78.416 440.986 75.152C441.706 71.936 442.474 68.072 443.29 63.56C445.786 50.024 447.37 35.888 448.042 21.152ZM446.602 13.16C446.65 13.448 446.842 13.688 447.178 13.88C447.514 14.072 447.85 14.192 448.186 14.24C448.33 14.288 448.57 14.312 448.906 14.312C449.674 14.312 450.346 14.168 450.922 13.88C451.786 13.544 452.506 13.112 453.082 12.584C453.706 12.008 453.946 11.336 453.802 10.568L453.154 7.68799C453.106 7.39999 452.914 7.18399 452.578 7.03999C452.242 6.84799 451.906 6.72799 451.57 6.67999C451.426 6.63199 451.162 6.60799 450.778 6.60799C450.154 6.60799 449.482 6.72799 448.762 6.96799C446.554 7.928 445.618 9.05599 445.954 10.352L446.602 13.16Z" stroke="white" stroke-width="2" mask="url(#path-1-outside-1)"/>
</svg>
